PathFileType	3	(X/Y/Z)	.\ExampleData\generated\LevelGround_ccw_fast_01.trc
DataRate	CameraRate	NumFrames	NumMarkers	Units	OrigDataRate	OrigDataStartFrame	OrigNumFrames
200.0	200.0	4	28	mm	200.0	3720	5952	
Frame#	Time	L_ASIS	R_ASIS	L_PSIS	R_PSIS	R_Thigh_Upper	R_Knee_Lat	R_Thigh_Front	R_Thigh_Rear	L_Thigh_Upper	L_Thigh_Front	L_Thigh_Rear	L_Knee_Lat	L_Shank_Upper	L_Shank_Front	L_Shank_Rear	L_Ankle_Lat	R_Shank_Upper	R_Shank_Rear	R_Shank_Front	R_Ankle_Lat	R_Heel	R_Toe_Tip	R_Toe_Med	R_Toe_Lat	L_Heel	L_Toe_Tip	L_Toe_Med	L_Toe_Lat	
		X1	Y1	Z1	X2	Y2	Z2	X3	Y3	Z3	X4	Y4	Z4	X5	Y5	Z5	X6	Y6	Z6	X7	Y7	Z7	X8	Y8	Z8	X9	Y9	Z9	X10	Y10	Z10	X11	Y11	Z11	X12	Y12	Z12	X13	Y13	Z13	X14	Y14	Z14	X15	Y15	Z15	X16	Y16	Z16	X17	Y17	Z17	X18	Y18	Z18	X19	Y19	Z19	X20	Y20	Z20	X21	Y21	Z21	X22	Y22	Z22	X23	Y23	Z23	X24	Y24	Z24	X25	Y25	Z25	X26	Y26	Z26	X27	Y27	Z27	X28	Y28	Z28	
3720	18.6	473.97615	983.66786	-353.64158	743.73243	976.42097	-348.56064	532.87738	1040.9501	-181.00488	657.90294	1046.5754	-185.05357	795.13705	796.44819	-251.32522	739.84716	480.51309	-212.25862	783.80535	735.87189	-305.80628	790.82388	730.27411	-237.65979	408.99579	841.4981	-303.5447	391.87097	796.39126	-388.31269	415.105	765.88976	-293.12324	439.79932	492.29699	-446.04395	416.01323	401.50221	-329.19439	426.84349	338.10642	-331.19639	430.68105	350.17798	-281.40599	455.45488	147.1309	-195.04062	754.87018	349.23894	-127.07019	730.5412	299.41773	-86.191812	741.38756	283.33752	-143.80421	686.52197	57.37856	-72.129095	639.11953	19.653552	-14.554342	660.47385	41.069955	-229.25936	632.7108	17.559337	-232.37964	734.93223	14.680044	-170.40046	502.57305	139.78359	-123.58955	476.23486	49.90423	-316.2431	502.46591	25.866112	-313.36199	409.6274	53.72362	-254.44942
3721	18.605	474.48243	983.56967	-356.0806	744.16214	975.9103	-350.6929	533.04537	1040.7935	-183.47369	658.55211	1046.5322	-187.41341	795.21266	796.08078	-252.87311	739.96225	480.2821	-212.96949	784.0626	735.34436	-307.21073	790.89633	729.96792	-239.00217	408.97658	841.88084	-306.50828	392.07381	797.24256	-391.51528	415.04477	766.32805	-296.67708	439.82301	493.68782	-451.78722	416.64208	402.61004	-335.14307	427.42486	339.17239	-337.45281	431.56224	351.16568	-287.61488	456.65531	147.79143	-202.08096	754.8171	349.19969	-127.47766	730.43876	299.48448	-86.540442	741.43252	283.25515	-144.09216	686.48085	57.379911	-72.130024	639.09986	19.714517	-14.560164	660.5691	41.0557	-229.25622	632.80418	17.528186	-232.23801	734.99292	14.639075	-170.3762	504.08828	140.27564	-130.83024	476.8327	50.790729	-323.52043	502.93872	26.692232	-320.8293	410.50135	54.594327	-261.45929
3722	18.61	474.968	983.47121	-358.57342	744.56458	975.38367	-352.87413	533.21158	1040.6394	-185.9998	659.08832	1046.4726	-189.82577	795.26958	795.70384	-254.47201	740.04654	480.04415	-213.7054	784.28032	734.80007	-308.66316	790.94693	729.65212	-240.39187	408.95441	842.25361	-309.46882	392.43897	797.95149	-394.46546	414.98505	766.78915	-300.17565	439.82171	495.04549	-457.39418	417.24837	403.51087	-341.06544	427.98075	340.0413	-343.78066	432.41996	351.87621	-293.87795	457.83503	148.03837	-209.51511	754.74715	349.16116	-127.91002	730.32476	299.55253	-86.909763	741.45746	283.1727	-144.40163	686.43475	57.386333	-72.134436	639.07593	19.77945	-14.568022	660.66377	41.047639	-229.25737	632.89285	17.481371	-232.10002	735.04779	14.605667	-170.35389	505.56048	140.232	-138.47344	477.45554	51.558222	-331.36787	503.45114	27.400307	-328.90613	411.37228	55.163122	-269.05268
3723	18.615	475.43083	983.37058	-361.11651	744.93719	974.8395	-355.10427	533.37891	1040.485	-188.58053	659.52076	1046.3845	-192.29785	795.30923	795.31643	-256.12563	740.10046	479.7976	-214.47008	784.45554	734.2385	-310.16745	790.97674	729.32536	-241.83318	408.9308	842.61192	-312.42866	392.9722	798.51358	-397.16318	414.92753	767.26442	-303.61772	439.80126	496.36431	-462.87345	417.82509	404.19602	-346.97867	428.51026	340.70671	-350.19189	433.24425	352.30322	-300.20993	458.98441	147.87678	-217.34726	754.66232	349.12439	-128.36856	730.19902	299.61997	-87.302388	741.46079	283.08905	-144.73491	686.38338	57.39816	-72.142643	639.04733	19.84794	-14.578222	660.75575	41.043794	-229.26386	632.9757	17.421752	-231.97188	735.09612	14.579683	-170.33403	506.97713	139.66377	-146.52023	478.10604	52.195646	-339.77765	504.0043	27.982467	-337.58047	412.23911	55.430344	-277.22874
